<svg xmlns="http://www.w3.org/2000/svg" xmlns:xlink="http://www.w3.org/1999/xlink" preserveAspectRatio="xMidYMid" width="6000" height="4000" viewBox="0 0 6000 4000">
  <defs>
    <style>
      .cls-1 {
        fill: #000;
        fill-rule: evenodd;
      }
    </style>
  </defs>
  <path d="M-0.000,-0.000 C1997.008,-0.000 3999.323,-0.059 5993.000,-0.000 C5993.372,2.076 5993.242,1.924 5994.000,3.000 C5995.752,0.476 5995.838,0.361 6000.000,-0.000 C6000.000,1333.200 6000.000,2666.800 6000.000,4000.000 C5380.062,4000.000 4759.938,4000.000 4140.000,4000.000 C4100.241,3903.725 4072.916,3805.338 4033.000,3710.000 C4028.186,3698.502 4026.865,3687.597 4022.000,3676.000 C4016.287,3662.381 4009.205,3646.245 4004.000,3633.000 C4002.674,3629.627 4002.578,3625.698 4003.000,3624.000 C3996.572,3607.642 3993.151,3590.789 3984.000,3577.000 C3982.724,3575.078 3982.715,3566.184 3981.000,3562.000 C3976.317,3550.575 3972.805,3538.683 3968.000,3526.000 C3957.140,3497.331 3951.365,3480.856 3939.000,3454.000 C3938.629,3453.194 3940.673,3452.037 3940.000,3450.000 C3938.379,3445.093 3935.573,3442.204 3934.000,3440.000 C3934.000,3440.000 3933.801,3434.218 3934.000,3434.000 C3929.981,3429.180 3930.353,3424.139 3927.000,3416.000 C3925.226,3411.695 3921.391,3407.816 3919.000,3404.000 C3921.467,3402.705 3919.681,3404.429 3921.000,3402.000 C3913.302,3390.171 3913.602,3378.537 3908.000,3365.000 C3898.054,3340.966 3888.736,3311.087 3878.000,3285.000 C3872.559,3271.779 3870.556,3257.825 3864.000,3246.000 C3867.597,3244.813 3867.657,3244.491 3868.000,3240.000 C3866.951,3238.451 3866.969,3235.915 3867.000,3233.000 C3869.000,3232.667 3871.000,3232.333 3873.000,3232.000 C3873.000,3231.333 3873.000,3230.667 3873.000,3230.000 C3875.854,3225.450 3870.299,3214.834 3869.000,3210.000 C3858.952,3209.338 3854.368,3198.591 3850.000,3192.000 C3845.235,3184.811 3835.127,3177.287 3829.000,3171.000 C3818.687,3160.418 3810.855,3146.159 3801.000,3135.000 C3757.596,3085.854 3714.759,3035.701 3672.000,2986.000 C3661.916,2974.279 3652.212,2962.474 3642.000,2951.000 C3640.182,2948.958 3633.885,2940.026 3636.000,2938.000 C3633.564,2935.768 3629.423,2935.299 3627.000,2933.000 C3623.177,2929.373 3621.166,2924.369 3618.000,2920.000 C3612.627,2912.584 3602.183,2906.241 3599.000,2897.000 C3598.000,2897.000 3597.000,2897.000 3596.000,2897.000 C3596.000,2896.000 3596.000,2895.000 3596.000,2894.000 C3589.872,2889.419 3588.081,2882.589 3583.000,2877.000 C3581.525,2875.378 3578.479,2874.660 3577.000,2873.000 C3569.183,2864.222 3563.183,2854.408 3556.000,2845.000 C3545.851,2831.708 3533.440,2820.424 3524.000,2806.000 C3518.191,2797.125 3508.421,2791.114 3503.000,2780.000 C3500.543,2780.287 3502.518,2780.659 3500.000,2780.000 C3493.578,2766.386 3480.368,2757.647 3472.000,2746.000 C3456.746,2724.770 3440.014,2705.654 3424.000,2685.000 C3421.479,2681.749 3416.550,2679.250 3414.000,2676.000 C3404.681,2664.122 3397.015,2651.271 3387.000,2640.000 C3385.302,2638.089 3381.537,2637.008 3380.000,2635.000 C3379.333,2633.000 3378.667,2631.000 3378.000,2629.000 C3376.620,2627.457 3373.187,2626.722 3372.000,2625.000 C3369.876,2621.917 3371.161,2618.031 3369.000,2615.000 C3367.444,2612.817 3361.852,2613.076 3360.000,2611.000 C3359.333,2609.000 3358.667,2607.000 3358.000,2605.000 C3357.118,2604.016 3354.851,2604.106 3354.000,2603.000 C3351.661,2599.961 3350.636,2595.782 3348.000,2593.000 C3344.004,2588.781 3339.012,2585.199 3335.000,2581.000 C3332.484,2578.367 3332.454,2573.728 3330.000,2571.000 C3329.114,2570.015 3326.855,2570.107 3326.000,2569.000 C3323.430,2565.672 3322.487,2562.565 3320.000,2559.000 C3315.302,2552.265 3307.448,2546.227 3302.000,2540.000 C3285.700,2521.371 3271.418,2501.299 3255.000,2483.000 C3251.596,2479.206 3250.435,2473.803 3247.000,2470.000 C3233.012,2454.516 3219.698,2438.932 3207.000,2422.000 C3202.279,2415.705 3194.656,2410.371 3190.000,2404.000 C3184.116,2395.949 3178.798,2387.228 3172.000,2380.000 C3167.508,2375.224 3159.493,2368.185 3156.000,2363.000 C3155.333,2361.000 3154.667,2359.000 3154.000,2357.000 C3153.000,2357.000 3152.000,2357.000 3151.000,2357.000 C3148.326,2355.008 3148.287,2350.404 3146.000,2348.000 C3144.712,2346.646 3142.145,2346.549 3141.000,2345.000 C3138.223,2341.243 3137.129,2336.452 3134.000,2333.000 C3119.842,2317.377 3105.848,2302.095 3093.000,2285.000 C3086.521,2276.379 3077.734,2268.435 3071.000,2260.000 C3069.381,2257.972 3070.606,2255.194 3069.000,2253.000 C3065.994,2248.891 3059.214,2251.734 3057.000,2241.000 C3056.000,2241.000 3055.000,2241.000 3054.000,2241.000 C3051.908,2234.775 3046.371,2231.732 3043.000,2227.000 C3034.252,2214.721 3023.358,2204.495 3014.000,2193.000 C3012.338,2190.958 3012.530,2188.108 3011.000,2186.000 C3008.334,2183.667 3005.666,2181.333 3003.000,2179.000 C2999.835,2174.473 2998.315,2170.398 2995.000,2166.000 C2993.699,2164.273 2990.345,2164.589 2989.000,2163.000 C2983.539,2156.547 2979.953,2149.006 2975.000,2142.000 C2973.805,2140.309 2970.301,2139.752 2969.000,2138.000 C2966.821,2135.065 2966.198,2131.871 2964.000,2129.000 C2960.191,2124.025 2953.750,2120.042 2950.000,2115.000 C2942.535,2104.962 2935.791,2095.603 2927.000,2087.000 C2924.459,2084.514 2924.482,2079.563 2922.000,2077.000 C2920.851,2075.813 2918.052,2076.314 2917.000,2075.000 C2910.191,2066.496 2905.163,2057.169 2898.000,2049.000 C2884.591,2033.708 2871.158,2018.685 2859.000,2002.000 C2855.016,1996.532 2847.741,1992.654 2846.000,1985.000 C2845.000,1985.000 2844.000,1985.000 2843.000,1985.000 C2843.000,1984.000 2843.000,1983.000 2843.000,1982.000 C2832.415,1975.219 2827.213,1962.260 2819.000,1953.000 C2805.758,1938.070 2790.922,1923.089 2779.000,1907.000 C2774.745,1901.259 2760.866,1879.892 2757.000,1879.000 C2753.948,1881.671 2745.773,1887.607 2745.000,1886.000 C2745.333,1886.667 2745.667,1887.333 2746.000,1888.000 C2743.982,1889.550 2738.812,1893.853 2737.000,1892.000 C2734.743,1894.821 2731.294,1899.559 2728.000,1901.000 C2727.000,1900.667 2726.000,1900.333 2725.000,1900.000 C2725.333,1900.667 2725.667,1901.333 2726.000,1902.000 C2722.818,1905.232 2708.201,1916.291 2706.000,1917.000 C2705.333,1916.667 2704.667,1916.333 2704.000,1916.000 C2702.292,1918.253 2696.323,1924.224 2692.000,1927.000 C2683.100,1932.715 2664.863,1944.822 2666.000,1946.000 C2664.334,1946.333 2662.666,1946.667 2661.000,1947.000 C2660.480,1947.390 2656.338,1952.928 2655.000,1954.000 C2654.604,1954.317 2652.625,1952.717 2651.000,1954.000 C2651.000,1954.000 2649.385,1958.022 2648.000,1959.000 C2646.333,1959.333 2644.667,1959.667 2643.000,1960.000 C2641.770,1960.919 2641.526,1964.193 2640.000,1965.000 C2637.348,1966.402 2638.966,1963.026 2637.000,1965.000 C2637.333,1965.000 2637.667,1965.000 2638.000,1965.000 C2638.000,1965.333 2638.000,1965.667 2638.000,1966.000 C2637.667,1966.000 2637.333,1966.000 2637.000,1966.000 C2636.848,1966.164 2622.364,1979.054 2621.000,1976.000 C2616.396,1982.050 2603.224,1992.469 2595.000,1998.000 C2592.960,1999.372 2590.079,1998.492 2588.000,2000.000 C2585.509,2001.806 2583.724,2006.228 2581.000,2008.000 C2578.160,2009.847 2572.783,2010.950 2571.000,2013.000 C2571.943,2014.764 2571.220,2013.012 2571.000,2015.000 C2566.206,2016.980 2550.966,2026.437 2549.000,2029.000 C2549.333,2029.000 2549.667,2029.000 2550.000,2029.000 C2550.000,2029.333 2550.000,2029.667 2550.000,2030.000 C2549.667,2030.000 2549.333,2030.000 2549.000,2030.000 C2541.931,2036.713 2535.140,2039.071 2529.000,2045.000 C2528.333,2044.667 2527.667,2044.333 2527.000,2044.000 C2523.641,2047.939 2519.604,2052.870 2516.000,2055.000 C2515.000,2054.667 2514.000,2054.333 2513.000,2054.000 C2513.471,2059.311 2504.069,2060.777 2499.000,2064.000 C2499.528,2068.004 2479.000,2080.000 2479.000,2080.000 C2479.000,2080.333 2479.000,2080.667 2479.000,2081.000 C2478.333,2080.667 2477.667,2080.333 2477.000,2080.000 C2477.000,2080.333 2477.000,2080.667 2477.000,2081.000 C2477.333,2081.000 2477.667,2081.000 2478.000,2081.000 C2478.000,2081.333 2478.000,2081.667 2478.000,2082.000 C2477.667,2082.000 2477.333,2082.000 2477.000,2082.000 C2474.707,2084.315 2463.027,2093.873 2461.000,2092.000 C2453.778,2100.780 2444.301,2106.790 2437.000,2112.000 C2433.970,2114.163 2420.052,2120.818 2422.000,2123.000 C2417.764,2125.832 2409.979,2129.019 2408.000,2131.000 C2408.333,2131.000 2408.667,2131.000 2409.000,2131.000 C2409.000,2131.333 2409.000,2131.667 2409.000,2132.000 C2408.667,2132.000 2408.333,2132.000 2408.000,2132.000 C2402.495,2137.510 2395.695,2139.453 2389.000,2144.000 C2389.000,2144.333 2389.000,2144.667 2389.000,2145.000 C2389.429,2147.700 2382.840,2147.762 2385.000,2150.000 C2383.095,2151.282 2367.564,2160.506 2367.000,2160.000 C2359.955,2168.268 2351.316,2172.901 2342.000,2179.000 C2340.333,2181.000 2338.667,2183.000 2337.000,2185.000 C2331.510,2188.404 2321.616,2193.412 2320.000,2195.000 C2320.333,2195.000 2320.667,2195.000 2321.000,2195.000 C2321.000,2195.333 2321.000,2195.667 2321.000,2196.000 C2320.667,2196.000 2320.333,2196.000 2320.000,2196.000 C2319.529,2196.506 2316.002,2200.439 2313.000,2201.000 C2312.346,2201.122 2292.127,2217.958 2290.000,2216.000 C2287.860,2218.596 2278.520,2227.705 2276.000,2229.000 C2275.000,2228.667 2274.000,2228.333 2273.000,2228.000 C2273.333,2228.667 2273.667,2229.333 2274.000,2230.000 C2271.448,2231.688 2267.783,2232.163 2267.000,2233.000 C2267.333,2233.000 2267.667,2233.000 2268.000,2233.000 C2268.000,2233.333 2268.000,2233.667 2268.000,2234.000 C2267.667,2234.000 2267.333,2234.000 2267.000,2234.000 C2262.304,2238.793 2251.988,2242.788 2249.000,2246.000 C2246.969,2247.638 2249.703,2247.166 2247.000,2248.000 C2247.000,2248.333 2247.000,2248.667 2247.000,2249.000 C2246.333,2248.667 2245.667,2248.333 2245.000,2248.000 C2244.763,2253.596 2225.752,2262.303 2220.000,2267.000 C2206.188,2278.278 2186.271,2290.145 2177.000,2300.000 C2175.667,2300.333 2174.333,2300.667 2173.000,2301.000 C2168.760,2303.850 2155.848,2312.271 2154.000,2314.000 C2154.333,2314.000 2154.667,2314.000 2155.000,2314.000 C2154.667,2314.667 2154.333,2315.333 2154.000,2316.000 C2148.675,2318.571 2134.811,2327.304 2133.000,2329.000 C2133.333,2329.000 2133.667,2329.000 2134.000,2329.000 C2134.000,2329.333 2134.000,2329.667 2134.000,2330.000 C2133.667,2330.000 2133.333,2330.000 2133.000,2330.000 C2120.502,2342.401 2094.762,2353.960 2083.000,2367.000 C2081.179,2369.019 2077.784,2368.216 2077.000,2369.000 C2077.333,2369.000 2077.667,2369.000 2078.000,2369.000 C2078.000,2369.333 2078.000,2369.667 2078.000,2370.000 C2077.667,2370.000 2077.333,2370.000 2077.000,2370.000 C2065.357,2381.784 2048.327,2389.957 2037.000,2400.000 C2034.146,2402.530 2028.202,2403.802 2027.000,2405.000 C2027.333,2405.000 2027.667,2405.000 2028.000,2405.000 C2028.000,2405.333 2028.000,2405.667 2028.000,2406.000 C2027.667,2406.000 2027.333,2406.000 2027.000,2406.000 C2024.370,2408.653 2009.955,2419.686 2007.000,2421.000 C2006.333,2420.667 2005.667,2420.333 2005.000,2420.000 C2000.435,2424.819 1994.014,2432.064 1988.000,2435.000 C1987.000,2434.667 1986.000,2434.333 1985.000,2434.000 C1985.135,2435.951 1966.016,2450.835 1962.000,2454.000 C1959.084,2456.299 1954.145,2456.891 1953.000,2458.000 C1953.333,2458.000 1953.667,2458.000 1954.000,2458.000 C1954.000,2458.333 1954.000,2458.667 1954.000,2459.000 C1953.667,2459.000 1953.333,2459.000 1953.000,2459.000 C1944.843,2466.784 1934.530,2471.524 1925.000,2478.000 C1921.229,2480.562 1917.965,2485.698 1914.000,2488.000 C1911.521,2489.439 1910.142,2488.175 1909.000,2489.000 C1909.333,2489.000 1909.667,2489.000 1910.000,2489.000 C1910.000,2489.333 1910.000,2489.667 1910.000,2490.000 C1909.667,2490.000 1909.333,2490.000 1909.000,2490.000 C1903.688,2495.478 1891.215,2504.845 1881.000,2505.000 C1879.776,2502.943 1879.351,2502.088 1877.000,2501.000 C1874.301,2503.519 1869.739,2504.207 1867.000,2507.000 C1867.333,2507.000 1867.667,2507.000 1868.000,2507.000 C1867.667,2507.667 1867.333,2508.333 1867.000,2509.000 C1863.522,2510.158 1858.535,2510.674 1856.000,2510.000 C1855.495,2521.535 1836.428,2527.178 1831.000,2533.000 C1831.333,2533.000 1831.667,2533.000 1832.000,2533.000 C1832.000,2533.333 1832.000,2533.667 1832.000,2534.000 C1831.667,2534.000 1831.333,2534.000 1831.000,2534.000 C1825.174,2539.819 1817.962,2542.101 1811.000,2547.000 C1801.375,2553.772 1792.565,2564.133 1782.000,2570.000 C1778.085,2572.174 1775.058,2569.793 1771.000,2573.000 C1763.169,2579.189 1759.879,2596.908 1752.000,2603.000 C1720.534,2627.329 1686.933,2648.476 1654.000,2671.000 C1638.616,2681.521 1623.724,2693.459 1608.000,2704.000 C1601.794,2708.160 1597.499,2715.258 1588.000,2716.000 C1585.545,2712.233 1583.453,2712.505 1580.000,2712.000 C1580.333,2712.667 1580.667,2713.333 1581.000,2714.000 C1580.667,2714.000 1580.333,2714.000 1580.000,2714.000 C1577.881,2716.133 1573.078,2720.293 1570.000,2721.000 C1568.000,2720.667 1566.000,2720.333 1564.000,2720.000 C1558.629,2722.214 1556.931,2730.172 1553.000,2734.000 C1551.185,2735.767 1548.159,2735.511 1546.000,2737.000 C1542.700,2739.276 1539.548,2743.872 1536.000,2746.000 C1533.541,2747.475 1532.141,2746.157 1531.000,2747.000 C1531.333,2747.000 1531.667,2747.000 1532.000,2747.000 C1532.000,2747.333 1532.000,2747.667 1532.000,2748.000 C1531.667,2748.000 1531.333,2748.000 1531.000,2748.000 C1525.010,2754.204 1513.748,2758.738 1509.000,2763.000 C1509.333,2763.000 1509.667,2763.000 1510.000,2763.000 C1510.000,2763.333 1510.000,2763.667 1510.000,2764.000 C1509.667,2764.000 1509.333,2764.000 1509.000,2764.000 C1501.225,2771.661 1490.708,2775.125 1482.000,2782.000 C1452.740,2805.102 1414.786,2828.848 1388.000,2848.000 C1377.588,2855.445 1352.423,2879.499 1340.000,2876.000 C1338.281,2883.305 1329.837,2888.398 1326.000,2894.000 C1322.085,2899.716 1320.040,2905.468 1316.000,2911.000 C1309.641,2919.708 1296.401,2925.216 1287.000,2931.000 C1274.983,2938.394 1263.794,2950.092 1252.000,2958.000 C1241.618,2964.961 1231.922,2972.117 1222.000,2979.000 C1220.209,2980.242 1217.808,2979.601 1216.000,2981.000 C1206.440,2988.398 1192.367,3004.705 1177.000,3005.000 C1175.122,3003.221 1176.207,3003.152 1174.000,3004.000 C1168.641,3005.792 1165.145,3011.504 1160.000,3013.000 C1156.525,3014.011 1155.390,3010.951 1152.000,3013.000 C1147.109,3015.956 1145.468,3023.708 1141.000,3027.000 C1130.393,3034.814 1118.330,3039.808 1108.000,3048.000 C1101.574,3053.096 1088.492,3066.586 1079.000,3067.000 C1078.913,3066.903 1077.687,3064.114 1077.000,3065.000 C1077.000,3065.333 1077.000,3065.667 1077.000,3066.000 C1063.650,3072.830 1060.293,3090.392 1049.000,3099.000 C1023.900,3118.132 997.144,3134.121 971.000,3152.000 C961.242,3158.673 937.180,3181.062 925.000,3182.000 C923.705,3179.533 925.429,3181.319 923.000,3180.000 C920.163,3183.704 907.687,3192.398 902.000,3193.000 C902.000,3193.000 901.562,3189.029 901.000,3191.000 C901.000,3191.333 901.000,3191.667 901.000,3192.000 C892.283,3194.414 890.542,3202.535 885.000,3208.000 C882.832,3210.138 879.631,3210.230 877.000,3212.000 C872.592,3214.966 868.431,3220.017 864.000,3223.000 C827.618,3247.495 791.951,3271.805 756.000,3297.000 C748.362,3302.353 725.348,3322.896 717.000,3324.000 C715.432,3322.171 716.118,3322.605 713.000,3322.000 C700.823,3337.737 685.309,3352.325 669.000,3364.000 C662.670,3368.531 654.871,3370.934 649.000,3376.000 C644.878,3379.557 642.658,3384.869 638.000,3388.000 C638.340,3390.422 638.327,3388.883 638.000,3392.000 C642.047,3393.227 643.618,3394.954 644.000,3400.000 C639.424,3402.388 640.798,3406.998 638.000,3411.000 C633.468,3417.482 626.954,3423.397 622.000,3430.000 C600.193,3459.065 573.051,3483.865 552.000,3514.000 C550.173,3516.615 545.963,3517.644 544.000,3520.000 C541.971,3522.434 541.837,3525.534 540.000,3528.000 C533.401,3536.858 523.638,3544.195 517.000,3553.000 C512.226,3559.333 508.246,3566.080 503.000,3572.000 C491.702,3584.748 480.652,3597.432 470.000,3611.000 C468.333,3612.000 466.666,3613.000 465.000,3614.000 C441.887,3643.640 418.647,3672.913 393.000,3700.000 C390.346,3702.803 389.552,3707.112 387.000,3710.000 C370.064,3729.165 353.503,3749.341 336.000,3768.000 C327.422,3777.145 320.560,3787.924 313.000,3798.000 C310.713,3801.048 306.514,3803.132 304.000,3806.000 C300.467,3810.031 298.540,3815.026 295.000,3819.000 C293.240,3820.976 289.634,3822.041 288.000,3824.000 C279.323,3834.402 272.936,3845.932 264.000,3856.000 C261.961,3858.297 257.911,3859.701 256.000,3862.000 C250.637,3868.450 242.158,3885.701 234.000,3888.000 C234.000,3889.000 234.000,3890.000 234.000,3891.000 C223.655,3898.309 215.614,3911.800 208.000,3922.000 C204.762,3926.338 199.236,3929.710 196.000,3934.000 C184.736,3948.934 172.200,3962.168 160.000,3976.000 C156.165,3980.349 145.151,3998.120 141.000,4000.000 C94.005,4000.000 46.995,4000.000 -0.000,4000.000 C-0.000,2666.800 -0.000,1333.200 -0.000,-0.000 Z" class="cls-1"/>
</svg>
